<svg width="41" height="20" viewBox="0 0 41 20" fill="none" xmlns="http://www.w3.org/2000/svg">
<path d="M37.3676 10.6372L26.7294 18.0639C26.3957 18.2968 26.3957 18.6741 26.7294 18.907L37.3676 10.6372ZM37.3676 10.6372H38.0838V10.1372L37.7976 9.72725L37.2104 10.1372H0.854193C0.382052 10.1372 0 9.87051 0 9.54091C0 9.2113 0.382052 8.94458 0.854193 8.94458H37.2104L37.7976 9.35456L38.0838 8.94458V8.44458H37.3676L26.7294 1.01791C26.3957 0.785012 26.3957 0.407663 26.7294 0.174713L37.3676 10.6372ZM27.0156 0.584692L27.0157 0.584659C27.0828 0.537785 27.1961 0.5 27.3333 0.5C27.4705 0.5 27.5838 0.537783 27.651 0.584691L27.9372 0.174713L27.651 0.584692L40.4635 9.52926C40.4694 9.53339 40.4746 9.53729 40.479 9.54091C40.4746 9.54451 40.4695 9.54838 40.4636 9.5525L27.6512 18.497C27.6512 18.497 27.6511 18.497 27.6511 18.4971C27.5838 18.544 27.4704 18.5817 27.3334 18.5817C27.1962 18.5817 27.0828 18.5439 27.0156 18.4971L27.0156 18.497C27.0097 18.4929 27.0046 18.489 27.0002 18.4855C27.0046 18.4818 27.0097 18.478 27.0156 18.4738L38.3701 10.5472L39.6735 9.63723H38.0838H0.854193C0.707667 9.63723 0.596911 9.59504 0.536255 9.55269C0.530189 9.54846 0.524961 9.54452 0.520466 9.5409C0.524961 9.53729 0.530189 9.53336 0.536256 9.52912C0.596911 9.48678 0.707667 9.44458 0.854193 9.44458H38.0838H39.6735L38.3701 8.5346L27.0156 0.607927L27.0156 0.607894C27.0097 0.603785 27.0046 0.599909 27.0002 0.596314C27.0046 0.592707 27.0097 0.588816 27.0156 0.584692ZM0.494666 9.51361C0.494819 9.51358 0.49557 9.51469 0.496463 9.51702C0.49496 9.51481 0.494513 9.51364 0.494666 9.51361ZM0.496463 9.56479C0.49557 9.56713 0.494819 9.56823 0.494666 9.5682C0.494514 9.56817 0.494961 9.567 0.496463 9.56479Z" fill="#0000FF" stroke="#0000FF"/>
</svg>
