<svg width="33" height="33" viewBox="0 0 33 33" fill="none" xmlns="http://www.w3.org/2000/svg">
<path d="M28.875 0H4.125C1.85006 0 0 1.85006 0 4.125V28.875C0 31.1499 1.85006 33 4.125 33H28.875C31.1499 33 33 31.1499 33 28.875V4.125C33 1.85006 31.1499 0 28.875 0Z" fill="#1976D2"/>
<path d="M27.8438 16.5H22.6875V12.375C22.6875 11.2365 23.6115 11.3438 24.75 11.3438H26.8125V6.1875H22.6875C19.2699 6.1875 16.5 8.95744 16.5 12.375V16.5H12.375V21.6562H16.5V33H22.6875V21.6562H25.7812L27.8438 16.5Z" fill="#FAFAFA"/>
</svg>
