<svg width="23" height="23" viewBox="0 0 23 23" fill="none" xmlns="http://www.w3.org/2000/svg">
<g clip-path="url(#clip0)">
<path d="M11.5 23C17.8408 23 23 17.8412 23 11.5C23 10.4055 22.8472 9.3269 22.5447 8.29393C22.3957 7.78599 21.8653 7.49423 21.3559 7.64327C20.8475 7.79184 20.5567 8.32412 20.7052 8.83206C20.9558 9.69026 21.0833 10.5882 21.0833 11.5C21.0833 16.7842 16.7842 21.0833 11.5 21.0833C6.21583 21.0833 1.91667 16.7842 1.91667 11.5C1.91667 6.21583 6.21583 1.91667 11.5 1.91667C13.4204 1.91667 15.2681 2.47819 16.8431 3.54017C17.2816 3.83614 17.8777 3.71986 18.1732 3.2814C18.469 2.84248 18.3536 2.2468 17.9147 1.95106C16.0219 0.674764 13.8039 0 11.5 0C5.15923 0 0 5.15876 0 11.5C0 17.8412 5.15923 23 11.5 23Z" fill="#97DA7B"/>
<path d="M21.3641 2.19758L11.5 12.0612L8.34423 8.90591C7.96988 8.5318 7.36343 8.5318 6.98908 8.90591C6.61497 9.28026 6.61497 9.88671 6.98908 10.2611L10.8224 14.0944C11.0098 14.2818 11.2546 14.3752 11.5 14.3752C11.7454 14.3752 11.9902 14.2818 12.1776 14.0944L22.7192 3.55272C23.0933 3.17837 23.0933 2.57193 22.7192 2.19758C22.3449 1.82346 21.7384 1.82346 21.3641 2.19758Z" fill="#97DA7B"/>
</g>
<defs>
<clipPath id="clip0">
<rect width="23" height="23" fill="white"/>
</clipPath>
</defs>
</svg>
