<svg width="31" height="31" viewBox="0 0 31 31" fill="none" xmlns="http://www.w3.org/2000/svg">
<path d="M29.8295 12.805L17.1849 12.8044C16.6265 12.8044 16.174 13.257 16.174 13.8153V17.8547C16.174 18.413 16.6265 18.8656 17.1848 18.8656H24.3055C23.5258 20.8891 22.0705 22.5838 20.2138 23.6606L23.25 28.9166C28.1205 26.0997 31 21.1574 31 15.6247C31 14.8369 30.9419 14.2738 30.8258 13.6397C30.7375 13.1579 30.3193 12.805 29.8295 12.805Z" fill="#167EE6"/>
<path d="M15.5 24.9348C12.0153 24.9348 8.97319 23.0308 7.33933 20.2134L2.0835 23.2428C4.75815 27.8784 9.76865 31 15.5 31C18.3116 31 20.9646 30.243 23.25 28.9237V28.9165L20.2138 23.6604C18.825 24.466 17.2178 24.9348 15.5 24.9348Z" fill="#12B347"/>
<path d="M23.25 28.9237V28.9165L20.2138 23.6604C18.8249 24.4659 17.2179 24.9347 15.5 24.9347V31C18.3116 31 20.9647 30.2429 23.25 28.9237Z" fill="#0F993E"/>
<path d="M6.06522 15.5001C6.06522 13.7825 6.53398 12.1755 7.33931 10.7867L2.08348 7.75732C0.756957 10.0355 0 12.6813 0 15.5001C0 18.3189 0.756957 20.9647 2.08348 23.2429L7.33931 20.2135C6.53398 18.8247 6.06522 17.2178 6.06522 15.5001Z" fill="#FFD500"/>
<path d="M15.5 6.06522C17.7724 6.06522 19.8597 6.87268 21.49 8.21579C21.8923 8.5471 22.4768 8.52318 22.8453 8.15476L25.7073 5.29271C26.1253 4.87469 26.0955 4.19045 25.649 3.80307C22.9174 1.43333 19.3633 0 15.5 0C9.76865 0 4.75815 3.12162 2.0835 7.75721L7.33933 10.7866C8.97319 7.96918 12.0153 6.06522 15.5 6.06522Z" fill="#FF4B26"/>
<path d="M21.49 8.21579C21.8922 8.5471 22.4769 8.52318 22.8453 8.15476L25.7073 5.2927C26.1253 4.87469 26.0955 4.19045 25.649 3.80307C22.9174 1.43327 19.3633 0 15.5 0V6.06522C17.7723 6.06522 19.8597 6.87267 21.49 8.21579Z" fill="#D93F21"/>
</svg>
