<svg width="77" height="77" viewBox="0 0 77 77" fill="none" xmlns="http://www.w3.org/2000/svg">
<g opacity="0.6" clip-path="url(#clip0)">
<path d="M39.1542 40.8896C38.7569 41.0156 38.3363 41.0479 37.9256 40.9825L7.21739 36.2436C5.75226 36.0211 4.7449 34.6533 4.96734 33.1882C5.05525 32.6088 5.33003 32.0748 5.75037 31.6665L27.9786 9.94755C28.5844 9.35397 29.4354 9.08123 30.2734 9.21206L60.9732 13.9673C62.4383 14.1898 63.4457 15.5576 63.2232 17.0227C63.1353 17.6021 62.8605 18.1361 62.4402 18.5444L40.2118 40.2634C39.9128 40.5507 39.5506 40.7652 39.1542 40.8896ZM13.3537 31.7464L37.4168 35.469L54.8327 18.4521L30.7816 14.7667L13.3537 31.7464Z" fill="#0000FF"/>
<path d="M43.3962 54.125C42.9989 54.251 42.5783 54.2832 42.1676 54.2179L11.4595 49.4791C9.99237 49.2504 8.98829 47.8761 9.21709 46.409C9.44577 44.9419 10.8201 43.9378 12.2873 44.1666L41.659 48.7046L62.9166 27.9258C63.9775 26.8869 65.6794 26.9049 66.7183 27.9658C67.7572 29.0266 67.7392 30.7285 66.6784 31.7674L44.4499 53.4864C44.1537 53.7783 43.7927 53.9965 43.3962 54.125Z" fill="#F0F0FF"/>
<path d="M47.6382 67.3602C47.2409 67.4861 46.8203 67.5184 46.4096 67.4531L15.6975 62.7018C14.2304 62.4731 13.2263 61.0988 13.4551 59.6316C13.6839 58.1645 15.0581 57.1605 16.5253 57.3893L45.8891 61.9024L67.1506 41.1361C68.2115 40.0972 69.9134 40.1151 70.9523 41.176C71.9912 42.2368 71.9732 43.9387 70.9124 44.9776L48.6921 66.7214C48.3957 67.0135 48.0347 67.2317 47.6382 67.3602Z" fill="#F0F0FF"/>
</g>
<defs>
<clipPath id="clip0">
<rect width="60.971" height="60.971" fill="white" transform="translate(0 18.6091) rotate(-17.771)"/>
</clipPath>
</defs>
</svg>
