<svg width="122" height="122" viewBox="0 0 122 122" fill="none" xmlns="http://www.w3.org/2000/svg">
<g clip-path="url(#clip0)">
<path d="M111.424 65.8836C110.483 67.0602 109.098 67.6724 107.7 67.6724C106.656 67.6724 105.605 67.3307 104.726 66.6277L90.4292 55.1902C88.374 53.5461 88.0406 50.5471 89.6848 48.4919C91.3289 46.4365 94.3279 46.1039 96.3831 47.7478L110.68 59.1853C112.735 60.8294 113.069 63.8284 111.424 65.8836ZM25.6169 47.7475L11.32 59.185C9.26485 60.8292 8.9315 63.8282 10.5756 65.8833C11.5168 67.06 12.902 67.6721 14.3 67.6721C15.3439 67.6721 16.3954 67.3304 17.274 66.6275L31.5708 55.19C33.626 53.5459 33.9594 50.5468 32.3152 48.4917C30.6708 46.4365 27.6721 46.1034 25.6169 47.7475Z" fill="#FF5CF3"/>
</g>
<defs>
<clipPath id="clip0">
<rect width="122" height="122" fill="white"/>
</clipPath>
</defs>
</svg>
