<svg width="68" height="51" viewBox="0 0 68 51" fill="none" xmlns="http://www.w3.org/2000/svg">
<path d="M29.988 37.944C29.988 41.888 28.696 45.084 26.112 47.532C23.528 49.844 20.264 51 16.32 51C11.56 51 7.616 49.436 4.488 46.308C1.496 43.18 0 38.692 0 32.844C0 26.588 1.768 20.468 5.304 14.484C8.976 8.36401 14.076 3.536 20.604 0L25.296 7.14001C21.76 9.58801 18.904 12.308 16.728 15.3C14.688 18.292 13.328 21.76 12.648 25.704C13.872 25.16 15.3 24.888 16.932 24.888C20.74 24.888 23.868 26.112 26.316 28.56C28.764 31.008 29.988 34.136 29.988 37.944ZM67.524 37.944C67.524 41.888 66.232 45.084 63.648 47.532C61.064 49.844 57.8 51 53.856 51C49.096 51 45.152 49.436 42.024 46.308C39.032 43.18 37.536 38.692 37.536 32.844C37.536 26.588 39.304 20.468 42.84 14.484C46.512 8.36401 51.612 3.536 58.14 0L62.832 7.14001C59.296 9.58801 56.44 12.308 54.264 15.3C52.224 18.292 50.864 21.76 50.184 25.704C51.408 25.16 52.836 24.888 54.468 24.888C58.276 24.888 61.404 26.112 63.852 28.56C66.3 31.008 67.524 34.136 67.524 37.944Z" fill="#013A51" fill-opacity="0.3"/>
</svg>
