<svg width="43" height="43" viewBox="0 0 43 43" fill="none" xmlns="http://www.w3.org/2000/svg">
<path d="M28.916 6.66602C28.9167 8.07673 28.7561 9.4829 28.4371 10.8571L28.4165 10.8522C26.8016 10.0807 25.4976 8.78237 24.7189 7.17098L24.7098 7.15221C26.0884 6.82848 27.4999 6.66533 28.916 6.66602Z" fill="#ED6337"/>
<path d="M12.5956 21.85L11.074 20.3284C11.1636 19.996 11.2627 19.6673 11.3713 19.3421C12.0147 17.4076 12.975 15.5934 14.2128 13.9734H14.2134C16.8177 10.5538 20.5272 8.14312 24.7098 7.15222L24.7189 7.17099C25.4976 8.78238 26.8017 10.0807 28.4165 10.8522L28.4371 10.8571C27.8314 13.4546 26.6669 15.889 25.0246 17.9907C24.0354 19.2587 22.885 20.3922 21.6025 21.3626C19.9947 22.581 18.1969 23.5261 16.2817 24.1598C15.9329 24.2755 15.5793 24.3806 15.2209 24.4753L13.8235 23.0779L12.5956 21.85Z" fill="#E5F5FD"/>
<path d="M26.0666 27.0976C26.3282 27.3606 26.6477 27.5586 26.9997 27.6758C26.6478 27.7936 26.3282 27.9917 26.0662 28.2544C25.8042 28.5171 25.607 28.8373 25.4902 29.1895C25.3734 28.8373 25.1762 28.5171 24.9142 28.2544C24.6522 27.9917 24.3327 27.7936 23.9808 27.6758C24.3327 27.558 24.6522 27.3599 24.9142 27.0972C25.1762 26.8344 25.3734 26.5143 25.4902 26.1621C25.6072 26.5144 25.8045 26.8347 26.0666 27.0976Z" fill="#3090FC"/>
<path d="M21.8889 24.0769C22.09 24.278 22.2496 24.5167 22.3585 24.7795C22.4674 25.0423 22.5234 25.3239 22.5234 25.6084C22.5234 25.8928 22.4674 26.1745 22.3585 26.4373C22.2496 26.7001 22.09 26.9388 21.8889 27.1399L18.3433 30.7376L16.2871 28.656C15.696 28.0574 15.364 27.2503 15.363 26.409C15.362 25.5677 15.692 24.7598 16.2816 24.1598C18.1969 23.5261 19.9946 22.581 21.6025 21.3625L21.6043 21.365C21.3339 21.7812 21.2146 22.2777 21.2664 22.7713C21.3182 23.265 21.538 23.7258 21.8889 24.0769Z" fill="#475673"/>
<path d="M13.8235 23.0779L13.0503 26.2051L9.3775 22.5317L12.5956 21.85L13.8235 23.0779Z" fill="#ED6337"/>
<path d="M11.5015 13.6895C11.8524 14.0404 12.3132 14.2602 12.8068 14.3119C13.3004 14.3636 13.7968 14.2441 14.2128 13.9734C12.975 15.5933 12.0147 17.4076 11.3713 19.3421C10.7677 19.9117 9.96646 20.2247 9.13655 20.2153C8.30663 20.2058 7.5128 19.8745 6.92233 19.2912L4.84012 17.2351L8.43842 13.6895C8.63952 13.4883 8.87828 13.3287 9.14107 13.2198C9.40385 13.111 9.68551 13.0549 9.96995 13.0549C10.2544 13.0549 10.5361 13.111 10.7988 13.2198C11.0616 13.3287 11.3004 13.4883 11.5015 13.6895Z" fill="#475673"/>
<path d="M11.1249 25.8055C11.1253 26.128 11.0076 26.4395 10.7939 26.6812C10.5803 26.9228 10.2856 27.0778 9.96541 27.1169L8.28281 27.3258L8.49109 25.6426C8.5325 25.3087 8.69971 25.0031 8.95863 24.7882C9.21755 24.5732 9.54869 24.4652 9.88455 24.4859C10.2204 24.5067 10.5357 24.6548 10.7662 24.8999C10.9966 25.1451 11.1249 25.469 11.1249 25.8055Z" fill="#FADF4A"/>
<path d="M3.54321 12.5058C3.80475 12.7688 4.12431 12.9668 4.47623 13.084C4.12439 13.2018 3.8048 13.3999 3.54281 13.6626C3.28081 13.9253 3.0836 14.2455 2.9668 14.5977C2.85 14.2455 2.65279 13.9253 2.3908 13.6626C2.1288 13.3999 1.80922 13.2018 1.45737 13.084C1.8093 12.9668 2.12886 12.7688 2.39039 12.5058C2.65253 12.2429 2.84987 11.9226 2.9668 11.5703C3.08373 11.9226 3.28108 12.2429 3.54321 12.5058Z" fill="#3090FC"/>
<path d="M20.3889 17.4862C21.6551 17.4862 22.6816 16.4597 22.6816 15.1935C22.6816 13.9272 21.6551 12.9008 20.3889 12.9008C19.1226 12.9008 18.0961 13.9272 18.0961 15.1935C18.0961 16.4597 19.1226 17.4862 20.3889 17.4862Z" fill="#50A6EA"/>
<path d="M24.7189 7.17099L24.7098 7.15222C20.5272 8.14312 16.8177 10.5538 14.2134 13.9734H14.2128C12.975 15.5934 12.0147 17.4076 11.3713 19.3421C11.2629 19.6673 11.1638 19.996 11.074 20.3284L12.285 21.5394C12.3746 21.207 12.4737 20.8782 12.5823 20.5531C13.2257 18.6185 14.1859 16.8043 15.4237 15.1844H15.4243C17.9407 11.8811 21.4909 9.5156 25.5084 8.46524C25.2042 8.06021 24.9398 7.62679 24.7189 7.17099Z" fill="#A6B7D0"/>
<path d="M21.8802 21.6119C24.1798 19.8574 26.0437 17.5961 27.327 15.0039C28.6103 12.4117 29.2784 9.55847 29.2794 6.66602C29.2794 6.56967 29.2411 6.47727 29.173 6.40914C29.1048 6.34101 29.0124 6.30273 28.9161 6.30273C24.7345 6.30186 20.6726 7.69864 17.3759 10.2711C16.1032 11.2623 14.9618 12.4114 13.9792 13.6907C13.6336 13.9027 13.2268 13.9925 12.8241 13.9456C12.4214 13.8988 12.0461 13.7181 11.7584 13.4324C11.2844 12.9584 10.6416 12.692 9.97135 12.6916C9.30105 12.6913 8.65803 12.9571 8.18357 13.4306L4.58533 16.9761C4.55108 17.0099 4.52389 17.0502 4.50532 17.0946C4.48676 17.139 4.4772 17.1866 4.4772 17.2347C4.4772 17.2828 4.48676 17.3305 4.50532 17.3749C4.52389 17.4193 4.55108 17.4595 4.58533 17.4933L6.66718 19.5495C7.19264 20.0656 7.86458 20.407 8.59127 20.5271C9.31796 20.6472 10.064 20.5401 10.7276 20.2204C10.7264 20.2249 10.725 20.2292 10.7238 20.2337C10.7072 20.2953 10.7071 20.3603 10.7235 20.4221C10.74 20.4838 10.7725 20.5401 10.8177 20.5853L11.8654 21.6332L9.30199 22.1765C9.23801 22.19 9.17887 22.2206 9.13082 22.265C9.08277 22.3093 9.04758 22.3659 9.02898 22.4286C9.01038 22.4913 9.00905 22.5578 9.02513 22.6212C9.04121 22.6846 9.07411 22.7425 9.12035 22.7887L10.41 24.0784C10.1189 23.9042 9.80222 23.7771 9.47153 23.7017C9.36629 23.6779 9.26082 23.6593 9.15892 23.6466C9.03141 23.6304 8.90305 23.6218 8.77451 23.6209C8.34933 23.6173 7.92771 23.6987 7.53445 23.8604C7.1412 24.0221 6.78424 24.2608 6.48457 24.5624C6.17512 24.8667 5.92946 25.2297 5.76196 25.6301C5.59446 26.0305 5.50847 26.4603 5.50904 26.8944C5.50901 26.9891 5.54602 27.0802 5.61217 27.148C5.67832 27.2159 5.76837 27.2552 5.86311 27.2576L6.13709 27.2646C5.60688 27.9986 5.38418 28.9106 5.51642 29.8063C5.53288 29.8887 5.57744 29.9628 5.64249 30.0159C5.70754 30.0691 5.78904 30.098 5.87304 30.0977H6.86553C6.96188 30.0977 7.05428 30.0594 7.12241 29.9913C7.19054 29.9231 7.22881 29.8307 7.22881 29.7344C7.22881 29.638 7.19054 29.5456 7.12241 29.4775C7.05428 29.4094 6.96188 29.3711 6.86553 29.3711H6.20375C6.19346 28.8867 6.29978 27.9689 7.17946 27.1927C7.23417 27.1444 7.27307 27.0808 7.29108 27.0102C7.30908 26.9395 7.30537 26.865 7.28042 26.7965C7.25546 26.728 7.21043 26.6685 7.15119 26.626C7.09196 26.5834 7.02127 26.5597 6.94836 26.558L6.26054 26.5406C6.33829 25.9855 6.59701 25.4715 6.99661 25.0783C7.22642 24.8471 7.49963 24.6634 7.80057 24.538C8.10152 24.4126 8.42426 24.3478 8.75029 24.3475H8.76924C8.82706 24.3478 8.88507 24.3509 8.94301 24.3553C8.72115 24.4861 8.53242 24.6662 8.39148 24.8818C8.25054 25.0973 8.16119 25.3424 8.13035 25.5981L7.92201 27.2813C7.91569 27.3324 7.92029 27.3842 7.93552 27.4334C7.95074 27.4826 7.97625 27.5279 8.01033 27.5665C8.04442 27.6051 8.08631 27.636 8.13323 27.6571C8.18015 27.6783 8.23104 27.6892 8.28251 27.6892C8.29742 27.6892 8.31232 27.6883 8.32713 27.6865L10.0103 27.4781C10.2662 27.4466 10.5114 27.3567 10.7269 27.2153C10.9425 27.0739 11.1226 26.8849 11.2535 26.6628C11.2587 26.7282 11.2623 26.7942 11.2624 26.8607C11.2632 27.1909 11.1986 27.5179 11.0723 27.823C10.9459 28.128 10.7604 28.4049 10.5263 28.6378C10.4918 28.6714 10.4643 28.7114 10.4455 28.7557C10.4266 28.8 10.4167 28.8476 10.4164 28.8957C10.4161 28.9438 10.4253 28.9915 10.4436 29.036C10.4618 29.0806 10.4887 29.121 10.5228 29.155C10.5568 29.1891 10.5972 29.216 10.6418 29.2343C10.6863 29.2525 10.734 29.2618 10.7821 29.2614C10.8302 29.2611 10.8778 29.2512 10.9221 29.2324C10.9663 29.2135 11.0064 29.186 11.04 29.1516C11.389 28.8028 11.6537 28.3789 11.8138 27.9122C11.9739 27.4455 12.0251 26.9483 11.9636 26.4588C11.9515 26.3575 11.9338 26.2545 11.9111 26.1525C11.8362 25.8167 11.7079 25.495 11.5313 25.1996L12.7935 26.4617C12.8391 26.5072 12.8958 26.5398 12.9581 26.5561C13.0203 26.5725 13.0858 26.572 13.1478 26.5548C13.2097 26.5375 13.266 26.5041 13.3109 26.458C13.3557 26.4118 13.3875 26.3546 13.403 26.2922L14.0219 23.7897L14.9642 24.732C15.0091 24.7769 15.0651 24.8093 15.1265 24.8258C15.1879 24.8424 15.2525 24.8426 15.314 24.8263C15.3357 24.8203 15.3572 24.8142 15.379 24.8082C15.0468 25.4746 14.9309 26.2282 15.0474 26.9637C15.1639 27.6992 15.507 28.38 16.0289 28.9112L18.0849 31.0059C18.1519 31.0786 18.2447 31.1221 18.3434 31.127C18.4421 31.1221 18.535 31.0786 18.6019 31.0059L22.1457 27.4033C22.6193 26.928 22.8853 26.2844 22.8853 25.6134C22.8853 24.9424 22.6193 24.2987 22.1457 23.8234C21.8618 23.5368 21.6815 23.1638 21.6335 22.7632C21.5854 22.3627 21.6722 21.9575 21.8802 21.6119ZM28.5491 7.03299C28.527 8.13787 28.4035 9.23839 28.1801 10.3207C26.9518 9.63995 25.9377 8.63012 25.2518 7.40469C26.3371 7.17956 27.4409 7.05513 28.5491 7.03299ZM7.17753 19.0325L5.35761 17.2351L8.69513 13.9462C9.03317 13.6082 9.49162 13.4183 9.96964 13.4183C10.4477 13.4183 10.9061 13.6082 11.2442 13.9462C11.508 14.2085 11.8264 14.4097 12.1767 14.5353C12.5269 14.6609 12.9005 14.708 13.271 14.6731C12.3388 16.0562 11.5944 17.557 11.0574 19.1362C10.5175 19.6128 9.81701 19.867 9.09708 19.8478C8.37716 19.8286 7.69126 19.5373 7.17753 19.0325ZM10.7256 26.0667C10.6744 26.2482 10.5707 26.4106 10.4275 26.5334C10.2843 26.6562 10.108 26.734 9.92078 26.7569L8.70028 26.9083L8.85165 25.6881C8.87615 25.4972 8.95714 25.3179 9.08422 25.1734C9.21131 25.0288 9.37869 24.9255 9.56489 24.8768C9.7282 24.8351 9.89961 24.8371 10.0619 24.8827C10.2241 24.9283 10.3715 25.0159 10.4892 25.1365C10.6069 25.2572 10.6907 25.4067 10.7323 25.5701C10.7738 25.7334 10.7716 25.9048 10.7259 26.0671L10.7256 26.0667ZM12.8522 25.4929L10.1076 22.7484L12.4782 22.2459L13.4218 23.1893L12.8522 25.4929ZM15.3291 24.0694L11.4809 20.2212C11.5455 19.9927 11.6148 19.7657 11.6888 19.5402C11.6909 19.538 11.6932 19.536 11.6954 19.5341L11.6919 19.5307C12.5667 16.882 14.037 14.4691 15.9899 12.4774C17.9427 10.4857 20.3262 8.96812 22.9571 8.04134C23.4708 7.86119 23.9906 7.70522 24.5165 7.57343C25.3006 9.06241 26.52 10.277 28.012 11.0552C26.458 17.2563 21.6799 22.3104 15.3291 24.0694ZM21.6302 26.8848L18.3431 30.2206L16.5457 28.4007C16.0335 27.8795 15.7414 27.1812 15.7298 26.4506C15.7181 25.7199 15.9879 25.0127 16.4832 24.4755C18.0464 23.9512 19.5333 23.2222 20.9051 22.3075C20.8703 22.6779 20.9174 23.0514 21.0431 23.4016C21.1687 23.7518 21.3698 24.0701 21.6321 24.334C21.9698 24.6726 22.1593 25.1315 22.1589 25.6098C22.1586 26.0881 21.9684 26.5467 21.6302 26.8849V26.8848Z" fill="#284268"/>
<path d="M9.33693 29.3032C9.1443 29.3488 8.94697 29.3716 8.74902 29.3711H8.17673C8.08038 29.3711 7.98798 29.4094 7.91985 29.4775C7.85172 29.5457 7.81345 29.6381 7.81345 29.7344C7.81345 29.8308 7.85172 29.9232 7.91985 29.9913C7.98798 30.0594 8.08038 30.0977 8.17673 30.0977H8.74902C9.00387 30.0982 9.25789 30.0687 9.50585 30.0098C9.59955 29.9873 9.6805 29.9286 9.73088 29.8465C9.78127 29.7644 9.79697 29.6656 9.77453 29.5719C9.75209 29.4782 9.69334 29.3972 9.61122 29.3469C9.5291 29.2965 9.43032 29.2808 9.33662 29.3032H9.33693Z" fill="#284268"/>
<path d="M23.9559 21.7975C24.0405 21.7976 24.1224 21.7681 24.1875 21.714C24.4464 21.4997 24.7031 21.2752 24.9503 21.0468C24.986 21.0146 25.0148 20.9756 25.0353 20.9322C25.0558 20.8888 25.0674 20.8417 25.0696 20.7938C25.0718 20.7458 25.0644 20.6979 25.0479 20.6528C25.0315 20.6077 25.0062 20.5663 24.9737 20.531C24.9411 20.4957 24.9019 20.4672 24.8583 20.4472C24.8146 20.4272 24.7674 20.416 24.7195 20.4143C24.6715 20.4126 24.6236 20.4204 24.5787 20.4374C24.5338 20.4543 24.4926 20.4799 24.4577 20.5128C24.2197 20.7324 23.9727 20.9483 23.7238 21.1546C23.6662 21.2023 23.6247 21.2666 23.605 21.3387C23.5854 21.4109 23.5884 21.4873 23.6138 21.5576C23.6391 21.628 23.6856 21.6888 23.7468 21.7317C23.808 21.7747 23.8809 21.7977 23.9557 21.7977L23.9559 21.7975Z" fill="#284268"/>
<path d="M29.9558 12.2291C29.9101 12.2152 29.8622 12.2106 29.8147 12.2153C29.7672 12.22 29.7211 12.234 29.6791 12.2566C29.637 12.2791 29.5998 12.3097 29.5696 12.3466C29.5394 12.3835 29.5167 12.426 29.5029 12.4717C29.197 13.4825 28.8027 14.4645 28.3245 15.4061C28.1504 15.749 27.9625 16.0911 27.7662 16.4228C27.525 16.8304 27.2643 17.2337 26.9912 17.6217C26.5581 18.2366 26.0872 18.8242 25.5813 19.3808C25.5165 19.4522 25.4827 19.5463 25.4873 19.6425C25.4919 19.7388 25.5346 19.8292 25.6059 19.894C25.6772 19.9588 25.7713 19.9927 25.8675 19.9881C25.9638 19.9835 26.0543 19.9408 26.1191 19.8695C26.6451 19.2904 27.1347 18.6793 27.5851 18.0397C27.8691 17.6363 28.1403 17.2168 28.3913 16.7928C28.5955 16.4477 28.7909 16.0919 28.9721 15.7351C29.4697 14.7554 29.8799 13.7337 30.1982 12.6819C30.226 12.5897 30.2162 12.4902 30.1707 12.4053C30.1253 12.3204 30.048 12.257 29.9558 12.2291Z" fill="#284268"/>
<path d="M1.27095 21.1676C1.31865 21.1677 1.3659 21.1583 1.40998 21.1401C1.45406 21.1218 1.49409 21.095 1.52779 21.0613L1.806 20.783C1.87261 20.7146 1.90959 20.6227 1.90895 20.5272C1.9083 20.4317 1.87009 20.3403 1.80257 20.2728C1.73505 20.2053 1.64365 20.167 1.54816 20.1664C1.45267 20.1657 1.36076 20.2027 1.29232 20.2693L1.0138 20.5475C0.963014 20.5983 0.928427 20.663 0.914416 20.7335C0.900406 20.804 0.9076 20.877 0.935089 20.9434C0.962579 21.0097 1.00913 21.0665 1.06886 21.1064C1.12858 21.1463 1.19881 21.1676 1.27064 21.1676H1.27095Z" fill="#284268"/>
<path d="M2.59517 19.9938L3.83826 18.7508C3.872 18.7171 3.89876 18.677 3.91702 18.633C3.93528 18.5889 3.94468 18.5416 3.94468 18.4939C3.94469 18.4462 3.93529 18.399 3.91704 18.3549C3.89878 18.3108 3.87203 18.2708 3.83829 18.237C3.80456 18.2033 3.76451 18.1765 3.72044 18.1583C3.67636 18.14 3.62912 18.1306 3.58141 18.1306C3.53371 18.1306 3.48646 18.14 3.44239 18.1583C3.39831 18.1765 3.35826 18.2033 3.32452 18.237L2.08149 19.48C2.04731 19.5137 2.02011 19.5537 2.00149 19.5979C1.98286 19.6421 1.97317 19.6895 1.97296 19.7375C1.97276 19.7855 1.98206 19.833 2.00032 19.8773C2.01857 19.9217 2.04543 19.962 2.07933 19.9959C2.11324 20.0298 2.15352 20.0567 2.19786 20.0749C2.24221 20.0932 2.28972 20.1025 2.33768 20.1023C2.38563 20.1021 2.43308 20.0924 2.47727 20.0738C2.52147 20.0552 2.56154 20.028 2.59517 19.9938Z" fill="#284268"/>
<path d="M1.56132 22.419C1.62945 22.4872 1.72185 22.5254 1.81819 22.5254C1.91453 22.5254 2.00693 22.4872 2.07506 22.419L3.53624 20.9578C3.56997 20.9241 3.59673 20.884 3.61498 20.8399C3.63324 20.7959 3.64263 20.7486 3.64263 20.7009C3.64262 20.6532 3.63322 20.606 3.61497 20.5619C3.59671 20.5178 3.56994 20.4778 3.53621 20.444C3.50247 20.4103 3.46242 20.3835 3.41834 20.3653C3.37426 20.347 3.32702 20.3376 3.27932 20.3376C3.23161 20.3376 3.18437 20.347 3.14029 20.3653C3.09622 20.3836 3.05617 20.4103 3.02244 20.4441L1.56126 21.9052C1.52752 21.939 1.50076 21.979 1.48251 22.0231C1.46425 22.0672 1.45486 22.1144 1.45486 22.1622C1.45487 22.2099 1.46427 22.2571 1.48254 22.3012C1.50081 22.3453 1.52757 22.3853 1.56132 22.419Z" fill="#284268"/>
<path d="M3.99373 20.3496C4.04144 20.3497 4.08868 20.3403 4.13276 20.322C4.17684 20.3038 4.21687 20.277 4.25057 20.2432L4.79077 19.7031C4.82496 19.6695 4.85215 19.6294 4.87077 19.5852C4.8894 19.541 4.8991 19.4936 4.8993 19.4456C4.8995 19.3977 4.8902 19.3501 4.87195 19.3058C4.85369 19.2614 4.82683 19.2212 4.79293 19.1872C4.75902 19.1533 4.71874 19.1265 4.6744 19.1082C4.63006 19.0899 4.58254 19.0806 4.53458 19.0808C4.48663 19.081 4.43918 19.0907 4.39499 19.1093C4.35079 19.1279 4.31072 19.1551 4.27709 19.1893L3.73689 19.7295C3.6861 19.7803 3.65151 19.845 3.6375 19.9155C3.62349 19.9859 3.63068 20.059 3.65817 20.1253C3.68566 20.1917 3.73221 20.2484 3.79194 20.2884C3.85167 20.3283 3.92189 20.3496 3.99373 20.3496Z" fill="#284268"/>
<path d="M2.50665 22.8651L0.892466 24.4792C0.825254 24.5475 0.78776 24.6396 0.78815 24.7354C0.78854 24.8312 0.826784 24.923 0.89455 24.9908C0.962316 25.0586 1.05411 25.0968 1.14995 25.0972C1.24578 25.0976 1.33789 25.0601 1.40621 24.9929L3.02026 23.3788C3.05445 23.3452 3.08164 23.3051 3.10026 23.2609C3.11888 23.2167 3.12857 23.1693 3.12876 23.1214C3.12896 23.0734 3.11966 23.0259 3.1014 22.9815C3.08313 22.9372 3.05627 22.8969 3.02236 22.863C2.98845 22.8291 2.94817 22.8022 2.90382 22.784C2.85948 22.7657 2.81196 22.7564 2.76401 22.7566C2.71605 22.7568 2.66861 22.7665 2.62442 22.7851C2.58022 22.8037 2.54016 22.8309 2.50652 22.8651H2.50665Z" fill="#284268"/>
<path d="M5.74322 20.1421C5.6751 20.074 5.58271 20.0358 5.48638 20.0358C5.39006 20.0358 5.29767 20.074 5.22954 20.1421L3.33861 22.0328C3.30442 22.0665 3.27722 22.1065 3.2586 22.1507C3.23997 22.1949 3.23028 22.2423 3.23008 22.2903C3.22987 22.3383 3.23917 22.3858 3.25743 22.4301C3.27568 22.4745 3.30254 22.5148 3.33644 22.5487C3.37035 22.5826 3.41064 22.6094 3.45498 22.6277C3.49932 22.646 3.54683 22.6553 3.59479 22.6551C3.64274 22.6549 3.69019 22.6452 3.73438 22.6266C3.77858 22.608 3.81865 22.5808 3.85228 22.5466L5.74322 20.6556C5.81127 20.5875 5.8495 20.4952 5.8495 20.3989C5.8495 20.3026 5.81127 20.2102 5.74322 20.1421Z" fill="#284268"/>
<path d="M12.8904 31.8672L12.6119 32.1454C12.5438 32.2135 12.5055 32.3059 12.5055 32.4023C12.5055 32.4986 12.5438 32.591 12.6119 32.6592C12.6801 32.7273 12.7725 32.7655 12.8688 32.7655C12.9652 32.7655 13.0576 32.7273 13.1257 32.6591L13.4039 32.3806C13.4711 32.3123 13.5086 32.2202 13.5082 32.1243C13.5078 32.0285 13.4695 31.9367 13.4017 31.8689C13.334 31.8012 13.2422 31.763 13.1463 31.7626C13.0505 31.7622 12.9584 31.7997 12.8901 31.8669L12.8904 31.8672Z" fill="#284268"/>
<path d="M14.9224 29.835L13.6794 31.078C13.6449 31.1116 13.6175 31.1516 13.5986 31.1959C13.5797 31.2402 13.5698 31.2878 13.5695 31.3359C13.5692 31.384 13.5784 31.4317 13.5967 31.4762C13.6149 31.5207 13.6419 31.5612 13.6759 31.5952C13.7099 31.6293 13.7503 31.6562 13.7949 31.6745C13.8394 31.6927 13.8871 31.702 13.9352 31.7016C13.9833 31.7013 14.0309 31.6914 14.0752 31.6726C14.1194 31.6537 14.1595 31.6262 14.1931 31.5917L15.4361 30.3487C15.5027 30.2803 15.5397 30.1884 15.5391 30.0929C15.5384 29.9974 15.5002 29.906 15.4327 29.8385C15.3652 29.7709 15.2738 29.7327 15.1783 29.7321C15.0828 29.7314 14.9909 29.7684 14.9224 29.835Z" fill="#284268"/>
<path d="M13.1592 34.017C13.2273 34.0851 13.3197 34.1234 13.416 34.1234C13.5124 34.1234 13.6048 34.0851 13.6729 34.017L15.1341 32.5559C15.1686 32.5223 15.1961 32.4822 15.215 32.438C15.2338 32.3937 15.2437 32.3461 15.2441 32.298C15.2444 32.2499 15.2352 32.2022 15.2169 32.1577C15.1986 32.1131 15.1717 32.0727 15.1377 32.0387C15.1037 32.0046 15.0632 31.9777 15.0187 31.9594C14.9742 31.9412 14.9265 31.9319 14.8783 31.9323C14.8302 31.9326 14.7826 31.9425 14.7384 31.9613C14.6941 31.9802 14.654 32.0077 14.6205 32.0421L13.1592 33.5033C13.0911 33.5714 13.0528 33.6638 13.0528 33.7602C13.0528 33.8565 13.0911 33.9489 13.1592 34.017Z" fill="#284268"/>
<path d="M15.3348 31.8414C15.3685 31.8752 15.4086 31.9019 15.4527 31.9202C15.4967 31.9384 15.544 31.9478 15.5917 31.9478C15.6394 31.9478 15.6866 31.9384 15.7307 31.9202C15.7748 31.9019 15.8149 31.8752 15.8486 31.8414L16.3887 31.3012C16.4569 31.2331 16.4951 31.1407 16.4951 31.0443C16.4951 30.9479 16.4568 30.8555 16.3887 30.7874C16.3205 30.7193 16.2281 30.681 16.1318 30.681C16.0354 30.681 15.943 30.7193 15.8749 30.7875L15.3348 31.3276C15.301 31.3613 15.2743 31.4014 15.256 31.4455C15.2378 31.4896 15.2284 31.5368 15.2284 31.5845C15.2284 31.6322 15.2378 31.6795 15.256 31.7235C15.2743 31.7676 15.301 31.8077 15.3348 31.8414Z" fill="#284268"/>
<path d="M14.1045 34.4631L12.4904 36.0771C12.4562 36.1107 12.429 36.1508 12.4104 36.195C12.3918 36.2392 12.3821 36.2866 12.3819 36.3346C12.3817 36.3825 12.391 36.4301 12.4092 36.4744C12.4275 36.5187 12.4543 36.559 12.4882 36.593C12.5221 36.6269 12.5624 36.6537 12.6068 36.672C12.6511 36.6903 12.6986 36.6996 12.7466 36.6994C12.7945 36.6992 12.842 36.6895 12.8862 36.6709C12.9304 36.6523 12.9704 36.6251 13.0041 36.5909L14.6182 34.9769C14.6524 34.9432 14.6796 34.9032 14.6982 34.859C14.7168 34.8148 14.7265 34.7673 14.7267 34.7194C14.7269 34.6714 14.7176 34.6239 14.6993 34.5796C14.6811 34.5352 14.6542 34.4949 14.6203 34.461C14.5864 34.4271 14.5461 34.4002 14.5018 34.382C14.4574 34.3637 14.4099 34.3544 14.3619 34.3546C14.314 34.3548 14.2665 34.3645 14.2223 34.3831C14.1782 34.4017 14.1381 34.4289 14.1045 34.4631Z" fill="#284268"/>
<path d="M16.8275 31.7399L14.9365 33.6309C14.9023 33.6646 14.8751 33.7046 14.8565 33.7488C14.8379 33.793 14.8282 33.8405 14.828 33.8884C14.8278 33.9364 14.8371 33.9839 14.8554 34.0282C14.8736 34.0726 14.9005 34.1129 14.9344 34.1468C14.9683 34.1807 15.0086 34.2076 15.0529 34.2258C15.0973 34.2441 15.1448 34.2534 15.1928 34.2532C15.2407 34.253 15.2882 34.2433 15.3324 34.2247C15.3765 34.2061 15.4166 34.1789 15.4502 34.1447L17.3412 32.2537C17.3754 32.2201 17.4026 32.1801 17.4212 32.1359C17.4398 32.0917 17.4495 32.0442 17.4497 31.9963C17.4499 31.9483 17.4406 31.9008 17.4224 31.8565C17.4041 31.8121 17.3773 31.7718 17.3433 31.7379C17.3094 31.704 17.2692 31.6771 17.2248 31.6589C17.1805 31.6406 17.133 31.6313 17.085 31.6315C17.037 31.6317 16.9896 31.6413 16.9454 31.66C16.9012 31.6786 16.8611 31.7058 16.8275 31.7399Z" fill="#284268"/>
<path d="M27.1146 27.3314C26.8167 27.2307 26.5461 27.0625 26.3241 26.8398C26.1021 26.6171 25.9346 26.346 25.8349 26.0478C25.8108 25.9754 25.7646 25.9124 25.7027 25.8678C25.6408 25.8232 25.5665 25.7992 25.4902 25.7992C25.414 25.7992 25.3396 25.8232 25.2777 25.8678C25.2159 25.9124 25.1696 25.9754 25.1455 26.0478C25.0458 26.346 24.8784 26.6171 24.6564 26.8398C24.4344 27.0625 24.1638 27.2307 23.8659 27.3314C23.7936 27.3555 23.7308 27.4018 23.6863 27.4636C23.6418 27.5254 23.6179 27.5997 23.6179 27.6759C23.6179 27.752 23.6418 27.8263 23.6863 27.8881C23.7308 27.9499 23.7936 27.9962 23.8659 28.0204C24.1638 28.121 24.4344 28.2893 24.6564 28.5119C24.8784 28.7346 25.0458 29.0057 25.1455 29.304C25.1696 29.3763 25.2159 29.4393 25.2777 29.4839C25.3396 29.5285 25.414 29.5525 25.4902 29.5525C25.5665 29.5525 25.6408 29.5285 25.7027 29.4839C25.7646 29.4393 25.8108 29.3763 25.8349 29.304C25.9346 29.0057 26.1021 28.7346 26.3241 28.5119C26.5461 28.2893 26.8167 28.121 27.1146 28.0204C27.1868 27.9962 27.2496 27.9499 27.2941 27.8881C27.3387 27.8263 27.3626 27.752 27.3626 27.6759C27.3626 27.5997 27.3387 27.5254 27.2941 27.4636C27.2496 27.4018 27.1868 27.3555 27.1146 27.3314ZM25.4902 28.3837C25.2995 28.107 25.0601 27.8672 24.7838 27.6759C25.0601 27.4845 25.2995 27.2447 25.4902 26.968C25.681 27.2447 25.9204 27.4845 26.1967 27.6759C25.9204 27.8672 25.681 28.107 25.4902 28.3837Z" fill="#284268"/>
<path d="M1.34244 13.4285C1.64037 13.5291 1.91094 13.6973 2.13296 13.92C2.35497 14.1427 2.5224 14.4138 2.6221 14.7121C2.64619 14.7844 2.69244 14.8474 2.75431 14.892C2.81618 14.9366 2.89052 14.9606 2.96679 14.9606C3.04307 14.9606 3.11741 14.9366 3.17928 14.892C3.24115 14.8474 3.2874 14.7844 3.31149 14.7121C3.41119 14.4138 3.57862 14.1427 3.80063 13.92C4.02265 13.6973 4.29322 13.5291 4.59115 13.4285C4.66339 13.4043 4.72621 13.358 4.77071 13.2962C4.81522 13.2344 4.83917 13.1601 4.83917 13.084C4.83917 13.0078 4.81522 12.9335 4.77071 12.8717C4.72621 12.8099 4.66339 12.7636 4.59115 12.7394C4.29322 12.6388 4.02265 12.4706 3.80063 12.2479C3.57862 12.0252 3.41119 11.7541 3.31149 11.4558C3.2874 11.3835 3.24115 11.3205 3.17928 11.2759C3.11741 11.2313 3.04307 11.2073 2.96679 11.2073C2.89052 11.2073 2.81618 11.2313 2.75431 11.2759C2.69244 11.3205 2.64619 11.3835 2.6221 11.4558C2.5224 11.7541 2.35497 12.0252 2.13296 12.2479C1.91094 12.4706 1.64037 12.6388 1.34244 12.7394C1.2702 12.7636 1.20738 12.8099 1.16288 12.8717C1.11837 12.9335 1.09442 13.0078 1.09442 13.084C1.09442 13.1601 1.11837 13.2344 1.16288 13.2962C1.20738 13.358 1.2702 13.4043 1.34244 13.4285ZM2.96679 12.3761C3.15757 12.6528 3.39693 12.8926 3.67326 13.084C3.39693 13.2753 3.15757 13.5151 2.96679 13.7918C2.77602 13.5151 2.53666 13.2753 2.26033 13.084C2.53666 12.8926 2.77602 12.6528 2.96679 12.3761Z" fill="#284268"/>
<path d="M7.69175 9.93555C8.05908 9.93555 8.35686 9.63736 8.35686 9.26953C8.35686 8.9017 8.05908 8.60352 7.69175 8.60352C7.32442 8.60352 7.02664 8.9017 7.02664 9.26953C7.02664 9.63736 7.32442 9.93555 7.69175 9.93555Z" fill="#284268"/>
<path d="M24.3421 33.6094C24.7095 33.6094 25.0072 33.3112 25.0072 32.9434C25.0072 32.5755 24.7095 32.2773 24.3421 32.2773C23.9748 32.2773 23.677 32.5755 23.677 32.9434C23.677 33.3112 23.9748 33.6094 24.3421 33.6094Z" fill="#284268"/>
<path d="M20.3888 12.5371C19.9522 12.5374 19.5224 12.6452 19.1375 12.8512C18.7525 13.0572 18.4243 13.3549 18.1818 13.718C17.9394 14.081 17.7902 14.4983 17.7475 14.9328C17.7047 15.3673 17.7698 15.8056 17.9369 16.2089C18.1039 16.6123 18.3679 16.9682 18.7053 17.2453C19.0428 17.5223 19.4433 17.7118 19.8715 17.7971C20.2997 17.8824 20.7423 17.8608 21.1601 17.7343C21.5779 17.6077 21.9581 17.3801 22.267 17.0715C22.6385 16.7 22.8915 16.2268 22.994 15.7115C23.0965 15.1962 23.0439 14.6621 22.8428 14.1768C22.6418 13.6914 22.3013 13.2766 21.8645 12.9847C21.4277 12.6929 20.9141 12.5371 20.3887 12.5371H20.3888ZM21.7533 16.5578C21.4834 16.8277 21.1396 17.0115 20.7653 17.0859C20.3909 17.1604 20.0029 17.1222 19.6503 16.9761C19.2977 16.8301 18.9963 16.5828 18.7843 16.2654C18.5722 15.9481 18.4591 15.575 18.4591 15.1933C18.4591 14.8117 18.5722 14.4386 18.7843 14.1212C18.9963 13.8039 19.2977 13.5566 19.6503 13.4105C20.0029 13.2645 20.3909 13.2263 20.7653 13.3007C21.1396 13.3752 21.4834 13.559 21.7533 13.8289C22.1146 14.191 22.3176 14.6817 22.3176 15.1933C22.3176 15.7049 22.1146 16.1956 21.7533 16.5578Z" fill="#284268"/>
</svg>
